<svg width="13" height="20" viewBox="0 0 13 20" fill="none" xmlns="http://www.w3.org/2000/svg">
<path d="M2.6875 20C2.08333 20 1.56771 19.7865 1.14062 19.3594C0.713541 18.9323 0.5 18.4167 0.5 17.8125C0.5 17.2083 0.713541 16.6927 1.14062 16.2656C1.56771 15.8385 2.08333 15.625 2.6875 15.625C3.29167 15.625 3.80729 15.8385 4.23438 16.2656C4.66146 16.6927 4.875 17.2083 4.875 17.8125C4.875 18.4167 4.66146 18.9323 4.23438 19.3594C3.80729 19.7865 3.29167 20 2.6875 20ZM10.8125 20C10.2083 20 9.69271 19.7865 9.26562 19.3594C8.83854 18.9323 8.625 18.4167 8.625 17.8125C8.625 17.2083 8.83854 16.6927 9.26562 16.2656C9.69271 15.8385 10.2083 15.625 10.8125 15.625C11.4167 15.625 11.9323 15.8385 12.3594 16.2656C12.7865 16.6927 13 17.2083 13 17.8125C13 18.4167 12.7865 18.9323 12.3594 19.3594C11.9323 19.7865 11.4167 20 10.8125 20ZM2.6875 12.1875C2.08333 12.1875 1.56771 11.974 1.14062 11.5469C0.713541 11.1198 0.5 10.6042 0.5 10C0.5 9.39583 0.713541 8.88021 1.14062 8.45312C1.56771 8.02604 2.08333 7.8125 2.6875 7.8125C3.29167 7.8125 3.80729 8.02604 4.23438 8.45312C4.66146 8.88021 4.875 9.39583 4.875 10C4.875 10.6042 4.66146 11.1198 4.23438 11.5469C3.80729 11.974 3.29167 12.1875 2.6875 12.1875ZM10.8125 12.1875C10.2083 12.1875 9.69271 11.974 9.26562 11.5469C8.83854 11.1198 8.625 10.6042 8.625 10C8.625 9.39583 8.83854 8.88021 9.26562 8.45312C9.69271 8.02604 10.2083 7.8125 10.8125 7.8125C11.4167 7.8125 11.9323 8.02604 12.3594 8.45312C12.7865 8.88021 13 9.39583 13 10C13 10.6042 12.7865 11.1198 12.3594 11.5469C11.9323 11.974 11.4167 12.1875 10.8125 12.1875ZM2.6875 4.375C2.08333 4.375 1.56771 4.16146 1.14062 3.73438C0.713541 3.30729 0.5 2.79167 0.5 2.1875C0.5 1.58333 0.713541 1.06771 1.14062 0.640625C1.56771 0.213541 2.08333 0 2.6875 0C3.29167 0 3.80729 0.213541 4.23438 0.640625C4.66146 1.06771 4.875 1.58333 4.875 2.1875C4.875 2.79167 4.66146 3.30729 4.23438 3.73438C3.80729 4.16146 3.29167 4.375 2.6875 4.375ZM10.8125 4.375C10.2083 4.375 9.69271 4.16146 9.26562 3.73438C8.83854 3.30729 8.625 2.79167 8.625 2.1875C8.625 1.58333 8.83854 1.06771 9.26562 0.640625C9.69271 0.213541 10.2083 0 10.8125 0C11.4167 0 11.9323 0.213541 12.3594 0.640625C12.7865 1.06771 13 1.58333 13 2.1875C13 2.79167 12.7865 3.30729 12.3594 3.73438C11.9323 4.16146 11.4167 4.375 10.8125 4.375Z" fill="#2DBDB1"/>
</svg>
